<svg width="194" height="153" viewBox="0 0 194 153" fill="none" xmlns="http://www.w3.org/2000/svg">
<g filter="url(#filter0_d_5_27)">
<path d="M4 110.139C4 116.338 5.51536 122.055 8.54608 127.29C11.5768 132.525 15.7096 136.658 20.9445 139.689C26.1793 142.719 31.8275 144.235 37.9578 144.235H112.555C118.685 144.235 124.402 142.719 129.637 139.689C134.872 136.658 139.074 132.525 142.104 127.29C145.135 122.055 146.719 116.338 146.719 110.139C146.719 105.593 145.755 100.978 143.826 96.363C149.061 90.0261 151.679 82.3804 151.679 73.6326C151.679 68.7422 150.714 64.0583 148.854 59.5811C146.995 55.1039 144.377 51.3155 141.14 48.0782C137.903 44.8408 134.114 42.2234 129.637 40.3636C125.16 38.435 120.476 37.5396 115.585 37.5396C105.391 37.5396 96.5057 41.5346 88.8601 49.5247C83.5563 46.494 77.3571 44.9786 70.2625 44.9786C60.5504 44.9786 52.0093 48.0093 44.5703 54.0019C37.1312 59.9944 32.3096 67.709 30.2432 77.0766C22.5287 78.8675 16.2606 82.7937 11.3702 88.9929C6.47968 95.1921 4 102.218 4 110.139ZM15.7785 110.139C15.7785 104.353 17.7071 99.3937 21.5644 95.1921C25.4217 90.9904 30.2433 88.5796 36.0292 87.8908L39.4732 87.6842C40.2997 87.6842 40.7819 87.2709 40.7819 86.4443L41.264 82.7248C42.2284 75.2858 45.4657 69.0177 50.9761 64.0583C56.4865 59.0301 62.9612 56.5504 70.3314 56.5504C77.9081 56.5504 84.5206 59.099 90.0999 64.1272C95.7481 69.1554 98.8477 75.3546 99.5365 82.7937L100.019 86.7887C100.156 87.5464 100.639 87.9597 101.465 87.9597H112.555C118.616 87.9597 123.851 90.1638 128.259 94.5721C132.668 98.9805 134.872 104.146 134.872 110.208C134.872 116.476 132.668 121.78 128.328 126.188C123.989 130.596 118.685 132.801 112.624 132.801H37.9578C31.8964 132.801 26.7304 130.596 22.3221 126.119C17.9826 121.642 15.7785 116.338 15.7785 110.139ZM61.928 25.6233C61.928 27.2765 62.4791 28.7229 63.5811 29.9628L68.1272 34.3711C69.8492 35.6798 71.2957 36.2308 72.5355 36.0931C73.982 36.0931 75.2218 35.4732 76.3239 34.3022C77.426 33.1312 77.977 31.6848 77.977 30.0317C77.977 28.3785 77.3571 27.0009 76.1862 25.9677L72.1222 21.4217C70.8824 20.3196 69.5048 19.7685 67.9206 19.7685C66.2675 19.7685 64.821 20.3196 63.65 21.4905C62.4791 22.5926 61.928 23.9702 61.928 25.6233ZM98.7099 56.1371C103.463 51.5222 109.111 49.2492 115.585 49.2492C122.405 49.2492 128.191 51.5911 132.943 56.3438C137.696 61.0965 140.107 66.8135 140.107 73.6326C140.107 77.9032 138.936 82.1738 136.594 86.3065C129.912 79.6941 121.922 76.3878 112.555 76.3878H110.351C108.629 68.8799 104.771 62.1297 98.7099 56.1371ZM109.937 19.7685C109.937 21.5594 110.488 22.937 111.522 24.0391C112.555 25.1412 113.932 25.6233 115.585 25.6233C117.376 25.6233 118.754 25.0723 119.856 24.0391C120.958 22.937 121.44 21.5594 121.44 19.7685V5.64815C121.44 3.99504 120.889 2.68632 119.787 1.58424C118.685 0.482159 117.307 0 115.585 0C113.932 0 112.624 0.551039 111.522 1.58424C110.419 2.61744 109.937 3.99504 109.937 5.64815V19.7685ZM147.959 35.542C147.959 37.3329 148.441 38.7105 149.474 39.8126C150.921 40.9147 152.367 41.4657 153.745 41.4657C154.985 41.4657 156.362 40.9147 157.809 39.8126L167.659 29.9628C168.761 28.7229 169.312 27.2765 169.312 25.5545C169.312 23.9013 168.761 22.5237 167.659 21.4217C166.557 20.3196 165.179 19.7685 163.595 19.7685C161.942 19.7685 160.633 20.3196 159.6 21.4217L149.474 31.2715C148.441 32.5802 147.959 33.9578 147.959 35.542ZM153.401 117.096C153.401 118.749 153.952 120.195 155.123 121.435L159.6 125.775C160.633 126.877 161.942 127.428 163.595 127.428C165.248 127.428 166.626 126.877 167.728 125.706C168.83 124.535 169.381 123.157 169.381 121.435C169.381 119.92 168.83 118.542 167.728 117.44L163.25 112.963C162.148 111.861 160.84 111.31 159.324 111.31C157.671 111.31 156.294 111.861 155.191 112.963C154.02 114.065 153.401 115.443 153.401 117.096ZM163.526 73.6326C163.526 75.2169 164.146 76.5256 165.317 77.6277C166.419 78.7298 167.865 79.2808 169.518 79.2808H183.57C185.154 79.2808 186.463 78.7298 187.565 77.6966C188.667 76.6634 189.149 75.2858 189.149 73.6326C189.149 71.9795 188.598 70.6019 187.565 69.4998C186.532 68.3978 185.154 67.7778 183.57 67.7778H169.518C167.865 67.7778 166.488 68.3289 165.317 69.4998C164.077 70.6708 163.526 72.0484 163.526 73.6326Z" fill="white"/>
</g>
<defs>
<filter id="filter0_d_5_27" x="0" y="0" width="193.149" height="152.235" filterUnits="userSpaceOnUse" color-interpolation-filters="sRGB">
<feFlood flood-opacity="0" result="BackgroundImageFix"/>
<feColorMatrix in="SourceAlpha" type="matrix" values="0 0 0 0 0 0 0 0 0 0 0 0 0 0 0 0 0 0 127 0" result="hardAlpha"/>
<feOffset dy="4"/>
<feGaussianBlur stdDeviation="2"/>
<feComposite in2="hardAlpha" operator="out"/>
<feColorMatrix type="matrix" values="0 0 0 0 0 0 0 0 0 0 0 0 0 0 0 0 0 0 0.25 0"/>
<feBlend mode="normal" in2="BackgroundImageFix" result="effect1_dropShadow_5_27"/>
<feBlend mode="normal" in="SourceGraphic" in2="effect1_dropShadow_5_27" result="shape"/>
</filter>
</defs>
</svg>
