<svg width="125" height="82" viewBox="0 0 125 82" fill="none" xmlns="http://www.w3.org/2000/svg">
<path d="M0 57.8852C0 52.3216 1.74215 47.3199 5.22646 42.9926C8.71077 38.6653 13.1504 35.8554 18.6017 34.6191C20.0629 28.0438 23.3786 22.5926 28.605 18.4339C33.8315 14.219 39.8447 12.1397 46.7009 12.1397C53.3324 12.1397 59.2894 14.1628 64.4597 18.2653C69.6861 22.3678 73.058 27.5942 74.5754 34.0009H76.0928C82.7242 34.0009 88.344 36.305 93.0085 40.9695C97.673 45.634 100.033 51.2538 100.033 57.829C100.033 64.4605 97.673 70.0803 93.0085 74.7448C88.344 79.4093 82.7242 81.7696 76.0928 81.7696H23.9968C20.7372 81.7696 17.6463 81.1514 14.724 79.8589C11.8017 78.5663 9.16035 76.9927 7.02481 74.8572C4.88927 72.7216 3.20331 70.1365 1.91075 67.2142C0.618183 64.2919 0 61.0886 0 57.8852ZM8.14878 57.8852C8.14878 62.1563 9.72234 65.8654 12.7571 68.9001C15.7918 71.9349 19.5571 73.5084 23.9406 73.5084H76.0928C80.4201 73.5084 84.1853 71.9911 87.2763 68.9001C90.3672 65.8092 91.9407 62.1563 91.9407 57.8852C91.9407 53.6142 90.4234 49.9051 87.2763 46.8703C84.1853 43.8356 80.4762 42.2621 76.0928 42.2621H68.2812C67.7192 42.2621 67.4382 41.9811 67.4382 41.4191L67.0448 38.6653C66.4828 33.3827 64.2349 28.943 60.3572 25.4587C56.4795 21.9744 51.8712 20.2322 46.5886 20.2322C41.3059 20.2322 36.6976 21.9744 32.7637 25.5149C28.8298 28.9992 26.6381 33.4389 26.1323 38.6653L25.7389 41.0257C25.7389 41.5877 25.4579 41.8687 24.8397 41.8687L22.3108 42.2621C18.2645 42.5992 14.8926 44.2852 12.1389 47.2637C9.55375 50.2422 8.14878 53.7827 8.14878 57.8852ZM57.8844 8.88014C57.3225 9.38593 57.4349 9.77932 58.2778 10.0603C60.6944 11.1281 62.7175 12.1397 64.3473 13.1512C64.9655 13.3198 65.4151 13.2636 65.5836 12.9826C69.0118 9.77932 72.9456 8.14956 77.4977 8.14956C82.0498 8.14956 85.9275 9.66692 89.2994 12.7016C92.6151 15.7364 94.4697 19.5017 94.8631 23.9413L95.3689 27.538H103.349C107.002 27.538 110.149 28.8306 112.79 31.4719C115.432 34.1133 116.724 37.2042 116.724 40.8009C116.724 44.1728 115.544 47.0951 113.24 49.6241C110.936 52.153 108.07 53.558 104.642 53.9513C104.08 53.9513 103.799 54.2323 103.799 54.8505V61.201C103.799 61.8191 104.08 62.1001 104.642 62.1001C110.318 61.7629 115.095 59.515 118.972 55.4125C122.85 51.31 124.817 46.4207 124.817 40.8009C124.817 34.8439 122.738 29.786 118.523 25.6273C114.308 21.4124 109.25 19.3331 103.349 19.3331H102.506C101.045 13.7132 97.954 9.10494 93.2333 5.45204C88.5688 1.79913 83.2862 0.000780579 77.4977 0.000780579C69.6299 -0.0554179 63.0547 2.9231 57.8844 8.88014Z" fill="white"/>
</svg>
