<svg width="125" height="121" viewBox="0 0 125 121" fill="none" xmlns="http://www.w3.org/2000/svg">
<path d="M0 57.0196C0 50.0953 2.16759 43.9538 6.50276 38.5349C10.8379 33.1159 16.3171 29.6839 22.9403 28.1184C24.8068 19.9298 29.0818 13.1862 35.6448 7.88761C42.2077 2.58906 49.7341 0 58.2238 0C66.5329 0 73.8786 2.58906 80.3813 7.70698C86.8841 12.8249 91.0989 19.4481 93.0256 27.5163H94.9523C100.311 27.5163 105.309 28.8409 109.885 31.43C114.461 34.0191 118.133 37.6317 120.783 42.1475C123.432 46.6633 124.817 51.6608 124.817 57.0196C124.817 62.3181 123.552 67.1952 121.024 71.711C118.495 76.2268 115.003 79.8394 110.607 82.5489C106.212 85.2584 101.395 86.7035 96.1566 86.8239C95.3738 86.8239 94.9523 86.4626 94.9523 85.8003V77.7923C94.9523 77.0697 95.3738 76.7085 96.1566 76.7085C101.274 76.4676 105.67 74.4205 109.283 70.567C112.895 66.7135 114.701 62.1977 114.701 56.9594C114.701 51.721 112.715 47.2052 108.801 43.3517C104.887 39.4982 100.251 37.5715 94.8921 37.5715H85.1982C84.4757 37.5715 84.1144 37.2102 84.1144 36.5479L83.6327 33.0557C82.9704 26.5529 80.1405 21.0738 75.2634 16.7386C70.3261 12.3432 64.6663 10.1756 58.1034 10.1756C51.5404 10.1756 45.7602 12.3432 40.9433 16.7386C36.0662 21.134 33.3568 26.5529 32.7546 33.0557L32.3332 36.2469C32.3332 36.9694 31.9117 37.3909 31.129 37.3909L27.9378 37.5715C22.9403 38.1736 18.7255 40.3412 15.2935 44.0141C11.8615 47.6869 10.1756 52.0221 10.1756 57.0196C10.1756 62.2579 11.9819 66.7737 15.5946 70.6272C19.2072 74.4807 23.6026 76.5279 28.7205 76.7687C29.3828 76.7687 29.7441 77.13 29.7441 77.8525V85.8605C29.7441 86.5228 29.3828 86.8841 28.7205 86.8841C20.6523 86.5228 13.8485 83.4521 8.24887 77.6719C2.64927 71.8916 0 65.0276 0 57.0196ZM32.2127 97.3006C32.2127 97.0597 32.273 96.6382 32.4536 96.0963L42.2679 61.3547C42.6292 60.2107 43.2915 59.3076 44.1947 58.7055C45.0978 58.1034 46.0612 57.8023 46.9644 57.8023C47.3858 57.8023 47.8675 57.8625 48.4094 57.9829C49.8545 58.2238 50.9383 59.0065 51.6608 60.2107C52.3833 61.415 52.564 62.7396 52.1425 64.2449L42.3282 98.7456C41.6056 101.335 39.9197 102.599 37.3909 102.599C37.15 102.599 36.9694 102.539 36.7285 102.479C36.3673 102.358 36.1867 102.298 36.1264 102.298C34.8018 101.937 33.8384 101.274 33.1761 100.311C32.5138 99.2875 32.2127 98.3241 32.2127 97.3006ZM47.988 114.22L62.6794 61.415C62.9202 60.2709 63.5223 59.3678 64.4857 58.7657C65.4491 58.1636 66.4124 57.8625 67.436 57.8625C67.9779 57.8625 68.5198 57.9227 69.0617 58.0432C70.3864 58.4044 71.3497 59.1872 72.012 60.3914C72.6744 61.5956 72.7948 62.86 72.4335 64.2449L57.8023 117.11C57.5615 118.133 57.0196 118.976 56.0562 119.699C55.0928 120.421 54.1294 120.783 52.9854 120.783C52.4436 120.783 51.9017 120.662 51.4802 120.482C50.276 120.181 49.2524 119.398 48.3492 118.133C47.6869 117.05 47.5665 115.785 47.988 114.22ZM72.855 97.421C72.855 97.1801 72.9152 96.7587 73.0958 96.0361L82.9102 61.2945C83.2715 60.1505 83.8736 59.2474 84.7165 58.6453C85.6197 58.0432 86.5228 57.7421 87.4862 57.7421C87.9679 57.7421 88.5098 57.8023 89.0517 57.9227C90.3161 58.284 91.2193 58.8861 91.8214 59.7893C92.4235 60.6924 92.7245 61.6558 92.7245 62.6192C92.7245 62.7998 92.6643 63.1009 92.6041 63.4621C92.5439 63.8234 92.4837 64.0642 92.4837 64.1847L82.6693 98.6854C82.4285 99.8294 81.8866 100.793 80.9834 101.455C80.0803 102.117 79.0567 102.479 77.9127 102.479L76.4676 102.178C75.2634 101.816 74.3603 101.214 73.6979 100.251C73.156 99.3477 72.855 98.3844 72.855 97.421Z" fill="white"/>
</svg>
