<svg width="38" height="36" viewBox="0 0 38 36" fill="none" xmlns="http://www.w3.org/2000/svg">
<path d="M0 16.9012C0 18.8844 0.589578 20.6531 1.76873 22.2074C2.94789 23.7618 4.4665 24.8337 6.34243 25.4055L5.18114 28.4069C5.12754 28.6571 5.21687 28.8 5.43127 28.8H9.23672L7.37866 35.5533H7.87891L14.9717 26.2273C15.0432 26.1558 15.0432 26.0665 15.0074 25.9772C14.9717 25.8878 14.8824 25.8521 14.7573 25.8521H10.8625L15.2933 17.5623C15.4005 17.3122 15.329 17.1871 15.0432 17.1871H9.79057C9.62978 17.1871 9.48685 17.2764 9.39752 17.4372L7.45012 22.5648C6.18164 22.2432 5.12754 21.5464 4.28784 20.4923C3.44814 19.4382 3.03722 18.2412 3.03722 16.9012C3.03722 15.4184 3.53747 14.132 4.53797 13.0422C5.53846 11.9524 6.78908 11.327 8.28983 11.1484L9.21886 11.0233C9.45112 11.0233 9.57618 10.9161 9.57618 10.7196L9.70124 9.79057C9.8799 7.86104 10.6839 6.23524 12.131 4.93102C13.5782 3.6268 15.2754 2.96576 17.2228 2.96576C19.1702 2.96576 20.8675 3.6268 22.3146 4.93102C23.7797 6.23524 24.6015 7.86104 24.8159 9.79057L24.9231 10.8268C24.9231 11.0412 25.0303 11.1484 25.2625 11.1484H28.139C29.7648 11.1484 31.1404 11.7201 32.2839 12.8457C33.4273 13.9712 33.999 15.329 33.999 16.9191C33.999 18.4377 33.463 19.7598 32.4089 20.8675C31.3548 21.9752 30.0506 22.5826 28.4963 22.7077C28.264 22.7077 28.139 22.8149 28.139 23.0471V25.4948C28.139 25.6913 28.264 25.7985 28.4963 25.7985C29.6576 25.7628 30.7653 25.4948 31.8194 25.0124C32.8735 24.53 33.7846 23.8868 34.535 23.1007C35.2854 22.3146 35.8928 21.3856 36.3395 20.2958C36.7861 19.2238 37.0184 18.0983 37.0184 16.937C37.0184 15.329 36.6253 13.8462 35.8213 12.4883C35.0174 11.1305 33.9454 10.0586 32.5876 9.27246C31.2298 8.48635 29.7469 8.0933 28.1568 8.0933H27.5851C26.9955 5.71712 25.7449 3.76973 23.8154 2.26898C21.8859 0.768239 19.7062 0 17.2407 0C14.7216 0 12.4705 0.786105 10.5231 2.34045C8.57568 3.89479 7.32506 5.89578 6.77122 8.34342C4.80595 8.80794 3.18015 9.8263 1.8938 11.4342C0.607444 13.0422 0 14.8466 0 16.9012ZM14.5787 34.5171C14.5787 34.803 14.668 35.071 14.8466 35.339C15.0253 35.6069 15.3112 35.8035 15.6685 35.9107C15.9186 35.9643 16.0615 36 16.1151 36C16.2759 36 16.4903 35.9464 16.794 35.8213C17.1692 35.6605 17.4194 35.339 17.5444 34.8923L18.0447 33.0164C18.1519 32.6233 18.1161 32.2481 17.9017 31.8908C17.6873 31.5335 17.3836 31.3012 16.9548 31.1762C16.5618 31.069 16.1866 31.1047 15.8293 31.3191C15.472 31.5335 15.2218 31.8372 15.0968 32.266L14.6144 34.0526C14.5965 34.3563 14.5787 34.5171 14.5787 34.5171ZM16.9727 25.995C16.9727 26.2452 17.062 26.5132 17.2407 26.7811C17.4194 27.0491 17.6873 27.2457 18.0447 27.3707C18.4377 27.4958 18.8308 27.4779 19.1881 27.2814C19.5454 27.0849 19.7777 26.7811 19.9027 26.3524L20.4387 24.4943C20.5459 24.1012 20.4923 23.7261 20.2958 23.3687C20.0814 23.0114 19.7598 22.7613 19.3489 22.6362C18.938 22.529 18.5628 22.5648 18.1876 22.7792C17.8124 22.9935 17.5801 23.2973 17.4551 23.7082L17.0263 25.5127C16.9906 25.8164 16.9727 25.9772 16.9727 25.995ZM22.0109 28.9429C22.0109 29.2466 22.1002 29.5504 22.2968 29.8541C22.4933 30.1578 22.7792 30.3543 23.1365 30.4794C23.1722 30.4794 23.2437 30.4973 23.3509 30.5151C23.4402 30.533 23.5117 30.5509 23.5653 30.5509C23.7975 30.5509 24.0298 30.5151 24.2442 30.4079C24.5836 30.2829 24.8337 29.9434 24.9767 29.3896L25.4233 27.5851C25.5484 27.1742 25.5127 26.7811 25.3161 26.406C25.1196 26.0308 24.8159 25.7806 24.4228 25.6556C23.9762 25.5484 23.5653 25.602 23.2079 25.7985C22.8506 26.0129 22.6184 26.3345 22.5469 26.7454L22.0645 28.5856C22.0288 28.6928 22.0109 28.8179 22.0109 28.9429ZM24.4407 20.3851C24.4228 20.671 24.5122 20.939 24.7087 21.2248C24.9052 21.5107 25.1911 21.7251 25.5841 21.9037C25.727 21.9752 25.87 22.0109 26.0486 22.0109C26.2452 22.0109 26.4417 21.9573 26.6561 21.868C27.0313 21.6893 27.2814 21.3499 27.4422 20.8496L27.9603 19.0094C27.996 18.7772 28.0139 18.6521 28.0139 18.6164C28.0139 18.3127 27.9246 18.0268 27.728 17.7409C27.5315 17.4551 27.2457 17.2586 26.8526 17.1514C26.8169 17.1514 26.7454 17.1335 26.6561 17.1156C26.5489 17.062 26.4774 17.062 26.4238 17.062C26.1201 17.062 25.8342 17.1514 25.5484 17.33C25.2625 17.5087 25.066 17.7945 24.9588 18.1876L24.4764 19.9921C24.4586 20.135 24.4407 20.26 24.4407 20.3851Z" fill="white"/>
</svg>
