<svg width="55" height="44" viewBox="0 0 55 44" fill="none" xmlns="http://www.w3.org/2000/svg">
<g filter="url(#filter0_d_28_14)">
<path d="M4 27.49C4 29.0372 4.37822 30.4642 5.13467 31.7708C5.89112 33.0774 6.92264 34.1089 8.22923 34.8653C9.53582 35.6218 10.9456 36 12.4756 36H31.0946C32.6246 36 34.0516 35.6218 35.3582 34.8653C36.6648 34.1089 37.7135 33.0774 38.4699 31.7708C39.2264 30.4642 39.6218 29.0372 39.6218 27.49C39.6218 26.3553 39.3811 25.2034 38.8997 24.0516C40.2063 22.4699 40.8596 20.5616 40.8596 18.3782C40.8596 17.1576 40.6189 15.9885 40.1547 14.8711C39.6905 13.7536 39.0372 12.808 38.2292 12C37.4212 11.192 36.4756 10.5387 35.3582 10.0745C34.2407 9.59312 33.0716 9.36963 31.851 9.36963C29.3066 9.36963 27.0888 10.3668 25.1805 12.361C23.8567 11.6046 22.3095 11.2264 20.5387 11.2264C18.1146 11.2264 15.9828 11.9828 14.1261 13.4785C12.2693 14.9742 11.0659 16.8997 10.5501 19.2378C8.62464 19.6848 7.06017 20.6648 5.83954 22.212C4.61891 23.7593 4 25.5129 4 27.49ZM6.93983 27.49C6.93983 26.0458 7.4212 24.808 8.38395 23.7593C9.3467 22.7106 10.5501 22.1089 11.9943 21.937L12.8539 21.8854C13.0602 21.8854 13.1805 21.7822 13.1805 21.5759L13.3009 20.6476C13.5415 18.7908 14.3496 17.2264 15.7249 15.9885C17.1003 14.7335 18.7163 14.1146 20.5559 14.1146C22.447 14.1146 24.0974 14.7507 25.49 16.0057C26.8997 17.2607 27.6734 18.808 27.8453 20.6648L27.9656 21.6619C28 21.851 28.1203 21.9542 28.3266 21.9542H31.0946C32.6074 21.9542 33.914 22.5043 35.0143 23.6046C36.1146 24.7049 36.6648 25.9943 36.6648 27.5072C36.6648 29.0716 36.1146 30.3954 35.0315 31.4957C33.9484 32.596 32.6246 33.1461 31.1117 33.1461H12.4756C10.9627 33.1461 9.67335 32.596 8.57307 31.4785C7.48997 30.361 6.93983 29.0372 6.93983 27.49ZM18.4585 6.39542C18.4585 6.80802 18.596 7.16905 18.8711 7.47851L20.0057 8.5788C20.4355 8.90544 20.7966 9.04298 21.106 9.0086C21.467 9.0086 21.7765 8.85387 22.0516 8.5616C22.3266 8.26934 22.4642 7.90831 22.4642 7.4957C22.4642 7.08309 22.3095 6.73925 22.0172 6.48137L21.0029 5.3467C20.6934 5.07163 20.3496 4.9341 19.9542 4.9341C19.5415 4.9341 19.1805 5.07163 18.8883 5.3639C18.596 5.63897 18.4585 5.98281 18.4585 6.39542ZM27.639 14.0115C28.8252 12.8596 30.235 12.2923 31.851 12.2923C33.553 12.2923 34.9971 12.8768 36.1834 14.063C37.3696 15.2493 37.9713 16.6762 37.9713 18.3782C37.9713 19.4441 37.6791 20.51 37.0946 21.5415C35.4269 19.8911 33.4327 19.0659 31.0946 19.0659H30.5444C30.1146 17.192 29.1519 15.5072 27.639 14.0115ZM30.4413 4.9341C30.4413 5.38109 30.5788 5.72493 30.8367 6C31.0946 6.27507 31.4384 6.39542 31.851 6.39542C32.298 6.39542 32.6418 6.25788 32.9169 6C33.192 5.72493 33.3123 5.38109 33.3123 4.9341V1.40974C33.3123 0.997135 33.1748 0.670487 32.8997 0.395415C32.6246 0.120344 32.2808 0 31.851 0C31.4384 0 31.1117 0.137536 30.8367 0.395415C30.5616 0.653295 30.4413 0.997135 30.4413 1.40974V4.9341ZM39.9312 8.87106C39.9312 9.31805 40.0516 9.66189 40.3095 9.93696C40.6705 10.212 41.0315 10.3496 41.3754 10.3496C41.6848 10.3496 42.0286 10.212 42.3897 9.93696L44.8481 7.47851C45.1232 7.16905 45.2607 6.80802 45.2607 6.37822C45.2607 5.96562 45.1232 5.62178 44.8481 5.3467C44.5731 5.07163 44.2292 4.9341 43.8338 4.9341C43.4212 4.9341 43.0946 5.07163 42.8367 5.3467L40.3095 7.80516C40.0516 8.1318 39.9312 8.47564 39.9312 8.87106ZM41.2894 29.2264C41.2894 29.639 41.4269 30 41.7192 30.3095L42.8367 31.3925C43.0946 31.6676 43.4212 31.8052 43.8338 31.8052C44.2464 31.8052 44.5903 31.6676 44.8653 31.3754C45.1404 31.0831 45.2779 30.7393 45.2779 30.3095C45.2779 29.9312 45.1404 29.5874 44.8653 29.3123L43.7478 28.1948C43.4728 27.9198 43.1461 27.7822 42.7679 27.7822C42.3553 27.7822 42.0115 27.9198 41.7364 28.1948C41.4441 28.4699 41.2894 28.8138 41.2894 29.2264ZM43.8166 18.3782C43.8166 18.7736 43.9713 19.1003 44.2636 19.3754C44.5387 19.6504 44.8997 19.788 45.3123 19.788H48.8195C49.2149 19.788 49.5415 19.6504 49.8166 19.3925C50.0917 19.1347 50.212 18.7908 50.212 18.3782C50.212 17.9656 50.0745 17.6218 49.8166 17.3467C49.5587 17.0716 49.2149 16.9169 48.8195 16.9169H45.3123C44.8997 16.9169 44.5559 17.0544 44.2636 17.3467C43.9542 17.639 43.8166 17.9828 43.8166 18.3782Z" fill="white"/>
</g>
<defs>
<filter id="filter0_d_28_14" x="0" y="0" width="54.212" height="44" filterUnits="userSpaceOnUse" color-interpolation-filters="sRGB">
<feFlood flood-opacity="0" result="BackgroundImageFix"/>
<feColorMatrix in="SourceAlpha" type="matrix" values="0 0 0 0 0 0 0 0 0 0 0 0 0 0 0 0 0 0 127 0" result="hardAlpha"/>
<feOffset dy="4"/>
<feGaussianBlur stdDeviation="2"/>
<feComposite in2="hardAlpha" operator="out"/>
<feColorMatrix type="matrix" values="0 0 0 0 0 0 0 0 0 0 0 0 0 0 0 0 0 0 0.25 0"/>
<feBlend mode="normal" in2="BackgroundImageFix" result="effect1_dropShadow_28_14"/>
<feBlend mode="normal" in="SourceGraphic" in2="effect1_dropShadow_28_14" result="shape"/>
</filter>
</defs>
</svg>
