<svg width="36" height="37" viewBox="0 0 36 37" fill="none" xmlns="http://www.w3.org/2000/svg">
<path d="M0 18C0 17.5932 0.135593 17.2373 0.423729 16.9492C0.711864 16.678 1.0678 16.5424 1.44068 16.5424H4.89831C5.28814 16.5424 5.61017 16.678 5.88136 16.9661C6.13559 17.2542 6.27119 17.5932 6.27119 18C6.27119 18.4068 6.15254 18.7458 5.8983 19.0339C5.64407 19.322 5.30508 19.4576 4.91525 19.4576H1.45763C1.0678 19.4576 0.728814 19.322 0.440678 19.0339C0.152543 18.7458 0 18.4068 0 18ZM4.84746 29.7458C4.84746 29.3559 4.98305 29.0169 5.23729 28.7119L7.72881 26.2881C7.98305 26.0169 8.32203 25.8983 8.72881 25.8983C9.13559 25.8983 9.47458 26.0339 9.74576 26.2881C10.0169 26.5424 10.1525 26.8644 10.1525 27.2542C10.1525 27.661 10.0169 28.0339 9.74576 28.339L7.33898 30.7458C6.64407 31.2881 5.94915 31.2881 5.25424 30.7458C4.98305 30.4746 4.84746 30.1356 4.84746 29.7458ZM4.84746 6.28814C4.84746 5.8983 4.98305 5.55932 5.23729 5.25424C5.57627 4.9661 5.9322 4.83051 6.32203 4.83051C6.69492 4.83051 7.0339 4.9661 7.32203 5.23729L9.74576 7.72881C10.0169 7.98305 10.1525 8.32203 10.1525 8.72881C10.1525 9.13559 10.0169 9.47458 9.74576 9.74576C9.47458 10.0169 9.13559 10.1525 8.72881 10.1525C8.32203 10.1525 7.98305 10.0169 7.72881 9.74576L5.25424 7.32203C4.98305 7.05085 4.84746 6.69491 4.84746 6.28814ZM9.16949 18C9.16949 16.4237 9.55932 14.9492 10.3559 13.5932C11.1525 12.2373 12.2203 11.1525 13.5932 10.3559C14.9661 9.55932 16.4237 9.16949 18 9.16949C19.1864 9.16949 20.322 9.40678 21.4237 9.88136C22.5085 10.3559 23.4576 10.9831 24.2373 11.7797C25.0339 12.5763 25.661 13.5085 26.1186 14.5932C26.5763 15.678 26.8136 16.8305 26.8136 18.0169C26.8136 19.6102 26.4237 21.0847 25.6271 22.4407C24.8305 23.7966 23.7627 24.8644 22.4068 25.661C21.0508 26.4576 19.5763 26.8475 17.983 26.8475C16.3898 26.8475 14.9153 26.4576 13.5593 25.661C12.2034 24.8644 11.1356 23.7966 10.339 22.4407C9.57627 21.0678 9.16949 19.5932 9.16949 18ZM12.0508 18C12.0508 19.661 12.6271 21.0678 13.7966 22.2373C14.9492 23.4068 16.3559 24 18.0169 24C19.678 24 21.0847 23.4068 22.2542 22.2373C23.4237 21.0678 24.017 19.661 24.017 18C24.017 16.3729 23.4237 14.983 22.2542 13.8136C21.0847 12.661 19.678 12.0847 18.0169 12.0847C16.3729 12.0847 14.9661 12.661 13.8136 13.8136C12.6271 14.983 12.0508 16.3729 12.0508 18ZM16.5593 31.1864C16.5593 30.7797 16.6949 30.4407 16.9831 30.1695C17.2712 29.8983 17.6102 29.7627 18 29.7627C18.4068 29.7627 18.7627 29.8983 19.0339 30.1695C19.3051 30.4407 19.4407 30.7797 19.4407 31.1864V34.5593C19.4407 34.9661 19.3051 35.322 19.0169 35.6102C18.7288 35.8983 18.3898 36.0339 18 36.0339C17.6102 36.0339 17.2542 35.8983 16.9831 35.6102C16.6949 35.322 16.5593 34.9661 16.5593 34.5593V31.1864ZM16.5593 4.91525V1.45763C16.5593 1.0678 16.6949 0.728814 16.9831 0.440678C17.2712 0.152543 17.6102 0 18.0169 0C18.4237 0 18.7458 0.135593 19.0339 0.423729C19.322 0.711864 19.4576 1.05085 19.4576 1.44068V4.91525C19.4576 5.30508 19.322 5.62712 19.0339 5.8983C18.7458 6.16949 18.4068 6.28814 18.0169 6.28814C17.6271 6.28814 17.2712 6.15254 17 5.8983C16.7288 5.64407 16.5593 5.30508 16.5593 4.91525ZM25.9153 27.2542C25.9153 26.8644 26.0508 26.5424 26.3051 26.3051C26.5593 26.0339 26.8814 25.9153 27.2542 25.9153C27.661 25.9153 28 26.0508 28.2712 26.3051L30.7458 28.7288C31.0169 29.0169 31.1525 29.3729 31.1525 29.7627C31.1525 30.1525 31.0169 30.4915 30.7458 30.7627C30.0678 31.2881 29.3898 31.2881 28.7119 30.7627L26.3051 28.3559C26.0508 28.0508 25.9153 27.6949 25.9153 27.2542ZM25.9153 8.74576C25.9153 8.32203 26.0508 7.98305 26.3051 7.74576L28.7119 5.25424C29 4.98305 29.339 4.84746 29.7119 4.84746C30.1186 4.84746 30.4576 4.98305 30.7288 5.27119C31.0169 5.55932 31.1525 5.8983 31.1525 6.28814C31.1525 6.71186 31.0169 7.0678 30.7458 7.33898L28.2712 9.76271C27.9661 10.0339 27.6271 10.1695 27.2542 10.1695C26.8644 10.1695 26.5593 10.0339 26.3051 9.76271C26.0508 9.49153 25.9153 9.15254 25.9153 8.74576ZM29.7458 18C29.7458 17.5932 29.8814 17.2542 30.1525 16.9492C30.4237 16.678 30.7458 16.5424 31.1186 16.5424H34.5424C34.9322 16.5424 35.2712 16.6949 35.5593 16.9831C35.8475 17.2712 36 17.6102 36 18C36 18.3898 35.8475 18.7288 35.5593 19.0169C35.2712 19.3051 34.9322 19.4407 34.5424 19.4407H31.1186C30.7288 19.4407 30.3898 19.3051 30.1356 19.0169C29.8814 18.7288 29.7458 18.4068 29.7458 18Z" fill="white"/>
</svg>
