<svg width="38" height="36" viewBox="0 0 38 36" fill="none" xmlns="http://www.w3.org/2000/svg">
<path d="M0 16.995C0 14.9312 0.646062 13.1007 1.93819 11.4855C3.23031 9.87039 4.86341 8.84746 6.83749 8.38086C7.39382 5.94018 8.668 3.93021 10.6241 2.35095C12.5803 0.771685 14.8235 0 17.3539 0C19.8305 0 22.0199 0.771685 23.9581 2.29711C25.8963 3.82253 27.1525 5.79661 27.7268 8.2014H28.3011C29.8983 8.2014 31.3878 8.59621 32.7517 9.3679C34.1157 10.1396 35.2104 11.2164 36 12.5623C36.7896 13.9083 37.2024 15.3978 37.2024 16.995C37.2024 18.5743 36.8255 20.0279 36.0718 21.3739C35.318 22.7198 34.2772 23.7966 32.9671 24.6042C31.657 25.4118 30.2213 25.8425 28.66 25.8784C28.4267 25.8784 28.3011 25.7707 28.3011 25.5733V23.1864C28.3011 22.9711 28.4267 22.8634 28.66 22.8634C30.1854 22.7916 31.4955 22.1815 32.5723 21.0329C33.6491 19.8843 34.1874 18.5384 34.1874 16.9771C34.1874 15.4158 33.5952 14.0698 32.4287 12.9212C31.2622 11.7727 29.8804 11.1984 28.2831 11.1984H25.3938C25.1785 11.1984 25.0708 11.0907 25.0708 10.8933L24.9272 9.85244C24.7298 7.91426 23.8863 6.28116 22.4327 4.98903C20.9611 3.67896 19.2742 3.0329 17.318 3.0329C15.3619 3.0329 13.6391 3.67896 12.2034 4.98903C10.7497 6.2991 9.94217 7.91426 9.76271 9.85244L9.63709 10.8036C9.63709 11.0189 9.51147 11.1446 9.27817 11.1446L8.32702 11.1984C6.83749 11.3779 5.58126 12.0239 4.55832 13.1186C3.53539 14.2134 3.0329 15.5055 3.0329 16.995C3.0329 18.5563 3.57129 19.9023 4.64806 21.0508C5.72483 22.1994 7.03489 22.8096 8.56032 22.8814C8.75773 22.8814 8.8654 22.989 8.8654 23.2044V25.5912C8.8654 25.7886 8.75773 25.8963 8.56032 25.8963C6.15553 25.7886 4.12762 24.8734 2.45862 23.1505C0.789632 21.4277 0 19.3819 0 16.995ZM9.6012 29.001C9.6012 28.9292 9.61914 28.8036 9.67298 28.6421L12.5982 18.2871C12.7059 17.9462 12.9033 17.677 13.1725 17.4975C13.4417 17.318 13.7288 17.2283 13.998 17.2283C14.1236 17.2283 14.2672 17.2463 14.4287 17.2822C14.8594 17.3539 15.1825 17.5872 15.3978 17.9462C15.6132 18.3051 15.667 18.6999 15.5414 19.1486L12.6162 29.4317C12.4008 30.2034 11.8983 30.5803 11.1446 30.5803C11.0728 30.5803 11.0189 30.5623 10.9472 30.5444C10.8395 30.5085 10.7856 30.4905 10.7677 30.4905C10.3729 30.3829 10.0857 30.1854 9.88833 29.8983C9.69093 29.5932 9.6012 29.3061 9.6012 29.001ZM14.3031 34.0439L18.682 18.3051C18.7537 17.9641 18.9332 17.6949 19.2203 17.5155C19.5075 17.336 19.7946 17.2463 20.0997 17.2463C20.2612 17.2463 20.4227 17.2642 20.5842 17.3001C20.9791 17.4078 21.2662 17.6411 21.4636 18C21.661 18.3589 21.6969 18.7358 21.5892 19.1486L17.2283 34.9053C17.1565 35.2104 16.995 35.4616 16.7079 35.677C16.4207 35.8923 16.1336 36 15.7926 36C15.6311 36 15.4696 35.9641 15.344 35.9103C14.985 35.8205 14.68 35.5872 14.4108 35.2104C14.2134 34.8873 14.1775 34.5105 14.3031 34.0439ZM21.7149 29.0369C21.7149 28.9651 21.7328 28.8395 21.7866 28.6241L24.7119 18.2692C24.8195 17.9282 24.999 17.659 25.2502 17.4796C25.5194 17.3001 25.7886 17.2104 26.0758 17.2104C26.2193 17.2104 26.3809 17.2283 26.5424 17.2642C26.9192 17.3719 27.1884 17.5513 27.3679 17.8205C27.5474 18.0897 27.6371 18.3769 27.6371 18.664C27.6371 18.7178 27.6191 18.8076 27.6012 18.9153C27.5833 19.0229 27.5653 19.0947 27.5653 19.1306L24.6401 29.4138C24.5683 29.7547 24.4068 30.0419 24.1376 30.2393C23.8684 30.4367 23.5633 30.5444 23.2223 30.5444L22.7916 30.4546C22.4327 30.347 22.1635 30.1675 21.9661 29.8804C21.8046 29.6112 21.7149 29.324 21.7149 29.0369Z" fill="white"/>
</svg>
