<svg width="174" height="33" viewBox="0 0 174 33" fill="none" xmlns="http://www.w3.org/2000/svg">
<path d="M15.56 10.016C15.912 9.856 16.456 9.68 17.192 9.488C17.96 9.264 18.728 9.152 19.496 9.152C20.84 9.152 21.96 9.36 22.856 9.776C23.752 10.16 24.296 10.736 24.488 11.504C24.84 12.816 25.16 14.048 25.448 15.2C25.768 16.32 26.072 17.408 26.36 18.464C26.648 19.488 26.92 20.512 27.176 21.536C27.464 22.56 27.736 23.632 27.992 24.752H28.232C28.52 22.8 28.776 20.944 29 19.184C29.224 17.392 29.432 15.648 29.624 13.952C29.816 12.224 30.008 10.528 30.2 8.864C30.392 7.168 30.584 5.456 30.776 3.728C31.96 3.056 33.224 2.72 34.568 2.72C35.752 2.72 36.776 2.976 37.64 3.488C38.504 4 38.936 4.864 38.936 6.08C38.936 6.784 38.856 7.792 38.696 9.104C38.568 10.384 38.376 11.824 38.12 13.424C37.896 15.024 37.624 16.704 37.304 18.464C36.984 20.224 36.648 21.904 36.296 23.504C35.944 25.104 35.576 26.56 35.192 27.872C34.84 29.152 34.504 30.144 34.184 30.848C33.704 31.296 32.92 31.664 31.832 31.952C30.744 32.24 29.624 32.384 28.472 32.384C26.968 32.384 25.688 32.192 24.632 31.808C23.608 31.392 22.984 30.816 22.76 30.08C22.344 28.8 21.896 27.28 21.416 25.52C20.936 23.76 20.424 21.824 19.88 19.712C19.432 21.792 18.968 23.824 18.488 25.808C18.008 27.792 17.576 29.472 17.192 30.848C16.712 31.296 15.992 31.664 15.032 31.952C14.072 32.24 13.016 32.384 11.864 32.384C10.424 32.384 9.112 32.192 7.928 31.808C6.776 31.392 6.024 30.816 5.672 30.08C5.384 29.504 5.064 28.656 4.712 27.536C4.392 26.384 4.056 25.088 3.704 23.648C3.352 22.176 2.984 20.592 2.6 18.896C2.248 17.2 1.912 15.504 1.592 13.808C1.304 12.112 1.032 10.464 0.776 8.864C0.52 7.232 0.328 5.744 0.2 4.4C0.648 3.984 1.272 3.6 2.072 3.248C2.872 2.896 3.736 2.72 4.664 2.72C5.88 2.72 6.872 2.992 7.64 3.536C8.44 4.048 8.936 4.928 9.128 6.176C9.64 9.44 10.056 12.16 10.376 14.336C10.728 16.512 11 18.304 11.192 19.712C11.416 21.088 11.576 22.16 11.672 22.928C11.768 23.696 11.864 24.304 11.96 24.752H12.2C12.488 23.472 12.76 22.288 13.016 21.2C13.272 20.112 13.528 19.024 13.784 17.936C14.072 16.816 14.36 15.632 14.648 14.384C14.936 13.104 15.24 11.648 15.56 10.016ZM51.9207 32.768C50.0327 32.768 48.2727 32.512 46.6407 32C45.0407 31.456 43.6327 30.656 42.4167 29.6C41.2327 28.544 40.2887 27.216 39.5847 25.616C38.9127 24.016 38.5767 22.144 38.5767 20C38.5767 17.888 38.9127 16.08 39.5847 14.576C40.2887 13.04 41.2007 11.792 42.3207 10.832C43.4407 9.84 44.7207 9.12 46.1607 8.672C47.6007 8.192 49.0727 7.952 50.5767 7.952C52.2727 7.952 53.8087 8.208 55.1847 8.72C56.5928 9.232 57.7928 9.936 58.7847 10.832C59.8088 11.728 60.5928 12.8 61.1368 14.048C61.7128 15.296 62.0008 16.656 62.0008 18.128C62.0008 19.216 61.6968 20.048 61.0887 20.624C60.4808 21.2 59.6328 21.568 58.5448 21.728L46.6887 23.504C47.0407 24.56 47.7607 25.36 48.8487 25.904C49.9367 26.416 51.1847 26.672 52.5927 26.672C53.9047 26.672 55.1367 26.512 56.2887 26.192C57.4727 25.84 58.4327 25.44 59.1687 24.992C59.6807 25.312 60.1127 25.76 60.4647 26.336C60.8168 26.912 60.9928 27.52 60.9928 28.16C60.9928 29.6 60.3208 30.672 58.9768 31.376C57.9528 31.92 56.8007 32.288 55.5207 32.48C54.2407 32.672 53.0407 32.768 51.9207 32.768ZM50.5767 13.904C49.8087 13.904 49.1367 14.032 48.5607 14.288C48.0167 14.544 47.5687 14.88 47.2167 15.296C46.8647 15.68 46.5927 16.128 46.4007 16.64C46.2407 17.12 46.1447 17.616 46.1127 18.128L54.3208 16.784C54.2247 16.144 53.8727 15.504 53.2647 14.864C52.6567 14.224 51.7607 13.904 50.5767 13.904ZM73.0325 26.816C73.5765 26.816 74.1685 26.768 74.8085 26.672C75.4805 26.544 75.9765 26.384 76.2965 26.192V22.352L72.8405 22.64C71.9445 22.704 71.2085 22.896 70.6325 23.216C70.0565 23.536 69.7685 24.016 69.7685 24.656C69.7685 25.296 70.0085 25.824 70.4885 26.24C71.0005 26.624 71.8485 26.816 73.0325 26.816ZM72.6485 7.952C74.3765 7.952 75.9445 8.128 77.3525 8.48C78.7925 8.832 80.0085 9.376 81.0005 10.112C82.0245 10.816 82.8085 11.728 83.3525 12.848C83.8965 13.936 84.1685 15.232 84.1685 16.736V27.488C84.1685 28.32 83.9285 29.008 83.4485 29.552C83.0005 30.064 82.4565 30.512 81.8165 30.896C79.7365 32.144 76.8085 32.768 73.0325 32.768C71.3365 32.768 69.8005 32.608 68.4245 32.288C67.0805 31.968 65.9125 31.488 64.9205 30.848C63.9605 30.208 63.2085 29.392 62.6645 28.4C62.1525 27.408 61.8965 26.256 61.8965 24.944C61.8965 22.736 62.5525 21.04 63.8645 19.856C65.1765 18.672 67.2085 17.936 69.9605 17.648L76.2485 16.976V16.64C76.2485 15.712 75.8325 15.056 75.0005 14.672C74.2005 14.256 73.0325 14.048 71.4965 14.048C70.2805 14.048 69.0965 14.176 67.9445 14.432C66.7925 14.688 65.7525 15.008 64.8245 15.392C64.4085 15.104 64.0565 14.672 63.7685 14.096C63.4805 13.488 63.3365 12.864 63.3365 12.224C63.3365 11.392 63.5285 10.736 63.9125 10.256C64.3285 9.744 64.9525 9.312 65.7845 8.96C66.7125 8.608 67.8005 8.352 69.0485 8.192C70.3285 8.032 71.5285 7.952 72.6485 7.952ZM94.4379 23.984C94.4379 24.816 94.6939 25.408 95.2059 25.76C95.7499 26.112 96.5019 26.288 97.4619 26.288C97.9419 26.288 98.4379 26.256 98.9499 26.192C99.4619 26.096 99.9099 25.984 100.294 25.856C100.582 26.208 100.822 26.608 101.014 27.056C101.238 27.472 101.35 27.984 101.35 28.592C101.35 29.808 100.886 30.8 99.9579 31.568C99.0619 32.336 97.4619 32.72 95.1579 32.72C92.3419 32.72 90.1659 32.08 88.6299 30.8C87.1259 29.52 86.3739 27.44 86.3739 24.56V4.016C86.7259 3.92 87.2219 3.824 87.8619 3.728C88.5339 3.6 89.2379 3.536 89.9739 3.536C91.3819 3.536 92.4699 3.792 93.2379 4.304C94.0379 4.784 94.4379 5.824 94.4379 7.424V10.496H100.726C100.918 10.848 101.094 11.296 101.254 11.84C101.446 12.352 101.542 12.928 101.542 13.568C101.542 14.688 101.286 15.504 100.774 16.016C100.294 16.496 99.6379 16.736 98.8059 16.736H94.4379V23.984ZM125.657 31.952C125.337 32.048 124.825 32.144 124.121 32.24C123.449 32.336 122.745 32.384 122.009 32.384C121.305 32.384 120.665 32.336 120.089 32.24C119.545 32.144 119.081 31.952 118.697 31.664C118.313 31.376 118.009 30.992 117.785 30.512C117.593 30 117.497 29.344 117.497 28.544V17.888C117.497 16.576 117.161 15.664 116.489 15.152C115.849 14.608 115.049 14.336 114.089 14.336C113.449 14.336 112.841 14.416 112.265 14.576C111.689 14.736 111.225 14.928 110.873 15.152V31.952C110.553 32.048 110.041 32.144 109.337 32.24C108.665 32.336 107.961 32.384 107.225 32.384C106.521 32.384 105.881 32.336 105.305 32.24C104.761 32.144 104.297 31.952 103.913 31.664C103.529 31.376 103.225 30.992 103.001 30.512C102.809 30 102.713 29.344 102.713 28.544V0.704C103.065 0.639998 103.577 0.559999 104.249 0.464C104.953 0.335999 105.657 0.271999 106.361 0.271999C107.065 0.271999 107.689 0.319999 108.233 0.415998C108.809 0.511998 109.289 0.703999 109.673 0.991999C110.057 1.28 110.345 1.68 110.537 2.192C110.761 2.672 110.873 3.312 110.873 4.112V8.816C111.289 8.656 111.913 8.48 112.745 8.288C113.609 8.064 114.553 7.952 115.577 7.952C118.745 7.952 121.209 8.752 122.969 10.352C124.761 11.92 125.657 14.272 125.657 17.408V31.952ZM140.151 32.768C138.263 32.768 136.503 32.512 134.871 32C133.271 31.456 131.863 30.656 130.647 29.6C129.463 28.544 128.519 27.216 127.815 25.616C127.143 24.016 126.807 22.144 126.807 20C126.807 17.888 127.143 16.08 127.815 14.576C128.519 13.04 129.431 11.792 130.551 10.832C131.671 9.84 132.951 9.12 134.391 8.672C135.831 8.192 137.303 7.952 138.807 7.952C140.503 7.952 142.039 8.208 143.415 8.72C144.823 9.232 146.023 9.936 147.015 10.832C148.039 11.728 148.823 12.8 149.367 14.048C149.943 15.296 150.231 16.656 150.231 18.128C150.231 19.216 149.927 20.048 149.319 20.624C148.711 21.2 147.863 21.568 146.775 21.728L134.919 23.504C135.271 24.56 135.991 25.36 137.079 25.904C138.167 26.416 139.415 26.672 140.823 26.672C142.135 26.672 143.367 26.512 144.519 26.192C145.703 25.84 146.663 25.44 147.399 24.992C147.911 25.312 148.343 25.76 148.695 26.336C149.047 26.912 149.223 27.52 149.223 28.16C149.223 29.6 148.551 30.672 147.207 31.376C146.183 31.92 145.031 32.288 143.751 32.48C142.471 32.672 141.271 32.768 140.151 32.768ZM138.807 13.904C138.039 13.904 137.367 14.032 136.791 14.288C136.247 14.544 135.799 14.88 135.447 15.296C135.095 15.68 134.823 16.128 134.631 16.64C134.471 17.12 134.375 17.616 134.343 18.128L142.551 16.784C142.455 16.144 142.103 15.504 141.495 14.864C140.887 14.224 139.991 13.904 138.807 13.904ZM159.439 31.952C159.119 32.048 158.607 32.144 157.903 32.24C157.231 32.336 156.527 32.384 155.791 32.384C155.087 32.384 154.447 32.336 153.871 32.24C153.327 32.144 152.863 31.952 152.479 31.664C152.095 31.376 151.791 30.992 151.567 30.512C151.375 30 151.279 29.344 151.279 28.544V14.144C151.279 13.408 151.407 12.784 151.663 12.272C151.951 11.728 152.351 11.248 152.863 10.832C153.375 10.416 153.999 10.048 154.735 9.728C155.503 9.376 156.319 9.072 157.183 8.816C158.047 8.56 158.943 8.368 159.871 8.24C160.799 8.08 161.727 8 162.655 8C164.191 8 165.407 8.304 166.303 8.912C167.199 9.488 167.647 10.448 167.647 11.792C167.647 12.24 167.583 12.688 167.455 13.136C167.327 13.552 167.167 13.936 166.975 14.288C166.303 14.288 165.615 14.32 164.911 14.384C164.207 14.448 163.519 14.544 162.847 14.672C162.175 14.8 161.535 14.944 160.927 15.104C160.351 15.232 159.855 15.392 159.439 15.584V31.952ZM164.302 28.112C164.302 26.768 164.718 25.648 165.55 24.752C166.382 23.856 167.518 23.408 168.958 23.408C170.398 23.408 171.534 23.856 172.366 24.752C173.198 25.648 173.614 26.768 173.614 28.112C173.614 29.456 173.198 30.576 172.366 31.472C171.534 32.368 170.398 32.816 168.958 32.816C167.518 32.816 166.382 32.368 165.55 31.472C164.718 30.576 164.302 29.456 164.302 28.112Z" fill="white"/>
</svg>
