<svg width="125" height="125" viewBox="0 0 125 125" fill="none" xmlns="http://www.w3.org/2000/svg">
<path d="M0 62.4084C0 60.9981 0.47012 59.764 1.46913 58.765C2.46813 57.8248 3.70219 57.3546 4.99502 57.3546H16.9831C18.3347 57.3546 19.4512 57.8248 20.3915 58.8238C21.2729 59.8228 21.743 60.9981 21.743 62.4084C21.743 63.8188 21.3317 64.9941 20.4502 65.9931C19.5687 66.9921 18.3934 67.4622 17.0419 67.4622H5.05379C3.7022 67.4622 2.5269 66.9921 1.52789 65.9931C0.528886 64.9941 0 63.8188 0 62.4084ZM16.8068 103.133C16.8068 101.781 17.2769 100.606 18.1584 99.5479L26.7968 91.1445C27.6783 90.2043 28.8536 89.7929 30.264 89.7929C31.6743 89.7929 32.8496 90.263 33.7899 91.1445C34.7301 92.026 35.2002 93.1425 35.2002 94.4941C35.2002 95.9045 34.7301 97.1973 33.7899 98.2551L25.4452 106.6C23.0359 108.48 20.6265 108.48 18.2171 106.6C17.2769 105.659 16.8068 104.484 16.8068 103.133ZM16.8068 21.8018C16.8068 20.4502 17.2769 19.2749 18.1584 18.2171C19.3337 17.2181 20.5678 16.748 21.9193 16.748C23.2122 16.748 24.3875 17.2181 25.3865 18.1584L33.7899 26.7968C34.7301 27.6783 35.2002 28.8536 35.2002 30.264C35.2002 31.6743 34.7301 32.8496 33.7899 33.7899C32.8496 34.7301 31.6743 35.2002 30.264 35.2002C28.8536 35.2002 27.6783 34.7301 26.7968 33.7899L18.2171 25.3865C17.2769 24.4462 16.8068 23.2122 16.8068 21.8018ZM31.7919 62.4084C31.7919 56.9433 33.1435 51.8307 35.9054 47.1295C38.6674 42.4283 42.3696 38.6674 47.1295 35.9054C51.8895 33.1435 56.9433 31.7919 62.4084 31.7919C66.522 31.7919 70.4592 32.6146 74.279 34.26C78.0399 35.9054 81.3308 38.0797 84.034 40.8417C86.7959 43.6036 88.9702 46.8357 90.5569 50.5967C92.1435 54.3576 92.9662 58.3536 92.9662 62.4672C92.9662 67.9911 91.6146 73.1037 88.8527 77.8049C86.0907 82.5061 82.3885 86.2083 77.6873 88.9702C72.9861 91.7322 67.8736 93.0838 62.3497 93.0838C56.8258 93.0838 51.7132 91.7322 47.012 88.9702C42.3108 86.2083 38.6086 82.5061 35.8467 77.8049C33.2022 73.0449 31.7919 67.9323 31.7919 62.4084ZM41.7819 62.4084C41.7819 68.1674 43.7799 73.0449 47.8347 77.0997C51.8307 81.1545 56.7082 83.2112 62.4672 83.2112C68.2262 83.2112 73.1037 81.1545 77.1584 77.0997C81.2132 73.0449 83.27 68.1674 83.27 62.4084C83.27 56.767 81.2132 51.9483 77.1584 47.8935C73.1037 43.8975 68.2262 41.8994 62.4672 41.8994C56.767 41.8994 51.8895 43.8975 47.8935 47.8935C43.7799 51.9483 41.7819 56.767 41.7819 62.4084ZM57.4134 108.128C57.4134 106.717 57.8835 105.542 58.8825 104.602C59.8815 103.661 61.0568 103.191 62.4084 103.191C63.8188 103.191 65.0529 103.661 65.9931 104.602C66.9333 105.542 67.4035 106.717 67.4035 108.128V119.822C67.4035 121.232 66.9333 122.466 65.9343 123.465C64.9353 124.464 63.76 124.934 62.4084 124.934C61.0568 124.934 59.8228 124.464 58.8825 123.465C57.8835 122.466 57.4134 121.232 57.4134 119.822V108.128ZM57.4134 17.0419V5.05379C57.4134 3.7022 57.8835 2.5269 58.8825 1.52789C59.8815 0.528886 61.0568 0 62.4672 0C63.8776 0 64.9941 0.47012 65.9931 1.46913C66.9921 2.46813 67.4622 3.64343 67.4622 4.99502V17.0419C67.4622 18.3934 66.9921 19.51 65.9931 20.4502C64.9941 21.3905 63.8188 21.8018 62.4672 21.8018C61.1156 21.8018 59.8815 21.3317 58.9413 20.4502C58.0011 19.5687 57.4134 18.3934 57.4134 17.0419ZM89.8517 94.4941C89.8517 93.1425 90.3218 92.026 91.2033 91.2033C92.0848 90.263 93.2013 89.8517 94.4941 89.8517C95.9045 89.8517 97.0798 90.3218 98.02 91.2033L106.6 99.6067C107.54 100.606 108.01 101.84 108.01 103.191C108.01 104.543 107.54 105.718 106.6 106.658C104.249 108.48 101.899 108.48 99.5479 106.658L91.2033 98.3138C90.3218 97.2561 89.8517 96.022 89.8517 94.4941ZM89.8517 30.3227C89.8517 28.8536 90.3218 27.6783 91.2033 26.8556L99.5479 18.2171C100.547 17.2769 101.722 16.8068 103.015 16.8068C104.425 16.8068 105.601 17.2769 106.541 18.2759C107.54 19.2749 108.01 20.4502 108.01 21.8018C108.01 23.2709 107.54 24.505 106.6 25.4452L98.02 33.8486C96.9623 34.7889 95.787 35.259 94.4941 35.259C93.1425 35.259 92.0848 34.7889 91.2033 33.8486C90.3218 32.9084 89.8517 31.7331 89.8517 30.3227ZM103.133 62.4084C103.133 60.9981 103.603 59.8228 104.543 58.765C105.483 57.8248 106.6 57.3546 107.893 57.3546H119.763C121.115 57.3546 122.29 57.8835 123.289 58.8825C124.288 59.8815 124.817 61.0568 124.817 62.4084C124.817 63.76 124.288 64.9353 123.289 65.9343C122.29 66.9333 121.115 67.4035 119.763 67.4035H107.893C106.541 67.4035 105.366 66.9333 104.484 65.9343C103.603 64.9353 103.133 63.8188 103.133 62.4084Z" fill="white"/>
</svg>
