<svg width="134" height="131" viewBox="0 0 134 131" fill="none" xmlns="http://www.w3.org/2000/svg">
<path d="M0 61.1795C0 68.3581 2.13417 74.7606 6.40251 80.3871C10.6708 86.0135 16.168 89.8938 22.9585 91.9633L18.7548 102.828C18.5608 103.734 18.8842 104.251 19.6602 104.251H33.4353L26.7095 128.697H28.5203L54.195 94.9382C54.4537 94.6795 54.4537 94.3562 54.3243 94.0328C54.195 93.7094 53.8716 93.5801 53.4189 93.5801H39.3205L55.3591 63.5724C55.7471 62.667 55.4884 62.2143 54.4537 62.2143H35.4402C34.8581 62.2143 34.3407 62.5376 34.0174 63.1197L26.9681 81.6805C22.3764 80.5164 18.5608 77.9942 15.5212 74.1786C12.4817 70.3629 10.9942 66.0299 10.9942 61.1795C10.9942 55.8118 12.805 51.1554 16.4266 47.2104C20.0483 43.2654 24.5753 41.0019 30.0077 40.3552L33.3707 39.9025C34.2114 39.9025 34.6641 39.5145 34.6641 38.8031L35.1168 35.4402C35.7635 28.4556 38.6737 22.5705 43.9122 17.8494C49.1506 13.1284 55.2944 10.7355 62.3436 10.7355C69.3929 10.7355 75.5367 13.1284 80.7751 17.8494C86.0782 22.5705 89.0531 28.4556 89.8291 35.4402L90.2172 39.1911C90.2172 39.9672 90.6052 40.3552 91.4459 40.3552H101.858C107.743 40.3552 112.723 42.4247 116.862 46.499C121.001 50.5734 123.07 55.4884 123.07 61.2442C123.07 66.7413 121.13 71.527 117.315 75.5367C113.499 79.5463 108.778 81.7452 103.152 82.1979C102.311 82.1979 101.858 82.5859 101.858 83.4266V92.2867C101.858 92.9981 102.311 93.3861 103.152 93.3861C107.355 93.2567 111.365 92.2867 115.181 90.5405C118.996 88.7944 122.294 86.4662 125.011 83.6206C127.727 80.7751 129.926 77.4121 131.542 73.4672C133.159 69.5869 134 65.5125 134 61.3089C134 55.4884 132.577 50.1206 129.667 45.2056C126.757 40.2905 122.876 36.4102 117.961 33.5647C113.046 30.7191 107.679 29.2963 101.923 29.2963H99.8533C97.7191 20.695 93.1921 13.6458 86.2075 8.21332C79.223 2.78089 71.333 0 62.4083 0C53.2896 0 45.1409 2.84556 38.0917 8.47201C31.0425 14.0985 26.5154 21.3417 24.5106 30.2017C17.3967 31.8832 11.5116 35.5695 6.85521 41.39C2.19884 47.2104 0 53.7423 0 61.1795ZM52.7722 124.946C52.7722 125.981 53.0956 126.951 53.7423 127.921C54.389 128.891 55.4237 129.602 56.7172 129.99C57.6226 130.184 58.14 130.314 58.334 130.314C58.916 130.314 59.6921 130.12 60.7915 129.667C62.1496 129.085 63.055 127.921 63.5077 126.304L65.3185 119.513C65.7066 118.091 65.5772 116.733 64.8012 115.439C64.0251 114.146 62.9257 113.305 61.3735 112.852C59.9508 112.464 58.5927 112.594 57.2992 113.37C56.0058 114.146 55.1004 115.245 54.6477 116.797L52.9015 123.264C52.8369 124.364 52.7722 124.946 52.7722 124.946ZM61.4382 94.0975C61.4382 95.0029 61.7616 95.973 62.4083 96.943C63.055 97.9131 64.0251 98.6245 65.3185 99.0772C66.7413 99.5299 68.1641 99.4652 69.4575 98.7538C70.751 98.0425 71.5917 96.943 72.0444 95.3909L73.9846 88.665C74.3726 87.2423 74.1786 85.8842 73.4672 84.5907C72.6911 83.2973 71.527 82.3919 70.0396 81.9392C68.5521 81.5512 67.194 81.6805 65.8359 82.4566C64.4778 83.2326 63.6371 84.332 63.1844 85.8195L61.6322 92.3513C61.5029 93.4508 61.4382 94.0328 61.4382 94.0975ZM79.6757 104.768C79.6757 105.868 79.999 106.967 80.7104 108.067C81.4218 109.166 82.4566 109.877 83.75 110.33C83.8793 110.33 84.138 110.395 84.5261 110.459C84.8494 110.524 85.1081 110.589 85.3021 110.589C86.1429 110.589 86.9836 110.459 87.7597 110.071C88.9884 109.619 89.8938 108.39 90.4112 106.385L92.028 99.8533C92.4807 98.3658 92.3513 96.943 91.64 95.5849C90.9286 94.2268 89.8291 93.3214 88.4064 92.8687C86.7896 92.4807 85.3021 92.6747 84.0087 93.3861C82.7153 94.1621 81.8745 95.3262 81.6158 96.8137L79.8697 103.475C79.7403 103.863 79.6757 104.316 79.6757 104.768ZM88.471 73.7905C88.4064 74.8253 88.7297 75.7954 89.4411 76.8301C90.1525 77.8649 91.1873 78.6409 92.61 79.2876C93.1274 79.5463 93.6448 79.6757 94.2915 79.6757C95.0029 79.6757 95.7143 79.4817 96.4903 79.1583C97.8484 78.5116 98.7539 77.2828 99.3359 75.472L101.211 68.8108C101.341 67.9701 101.405 67.5174 101.405 67.388C101.405 66.2886 101.082 65.2539 100.371 64.2191C99.6593 63.1844 98.6245 62.473 97.2017 62.0849C97.0724 62.0849 96.8137 62.0203 96.4903 61.9556C96.1023 61.7616 95.8436 61.7616 95.6496 61.7616C94.5502 61.7616 93.5154 62.0849 92.4807 62.7317C91.4459 63.3784 90.7346 64.4131 90.3465 65.8359L88.6004 72.3678C88.5357 72.8851 88.471 73.3378 88.471 73.7905Z" fill="white"/>
</svg>
